<?xml version="1.0" encoding="utf-8"?>
<!-- Generator: Adobe Illustrator 25.4.1, SVG Export Plug-In . SVG Version: 6.00 Build 0)  -->
<svg version="1.1" id="Layer_1" xmlns="http://www.w3.org/2000/svg" xmlns:xlink="http://www.w3.org/1999/xlink" x="0px" y="0px"
	 viewBox="0 0 123.1 38.8" style="enable-background:new 0 0 123.1 38.8;" xml:space="preserve">
<style type="text/css">
	.st0{fill:#2EC5B6;}
	.st1{fill:#15546C;}
	.st2{fill:#F7C90B;}
</style>
<path class="st0" d="M55.8,7.6l-7.7,19.2h-3.7L36.7,7.6h4.6l5,13.4l5-13.4L55.8,7.6z M69.6,16.7c0.3,1,0.4,2,0.4,3
	c0,0.2,0,0.3,0,0.5s0,0.4,0,0.6H59.8c0.1,0.8,0.6,1.6,1.2,2.1c0.7,0.5,1.5,0.8,2.3,0.7c0.6,0,1.3-0.1,1.9-0.4
	c0.6-0.3,1.2-0.7,1.7-1.1l2.4,2.1c-0.7,0.8-1.5,1.5-2.5,2c-1.1,0.5-2.3,0.8-3.5,0.7c-1,0-2.1-0.2-3-0.5c-0.9-0.3-1.7-0.9-2.4-1.6
	c-0.7-0.7-1.2-1.5-1.6-2.4c-0.4-1-0.6-2-0.6-3.1v-0.1c0-1,0.2-2,0.5-2.9c0.3-0.9,0.8-1.7,1.5-2.4c1.3-1.5,3.2-2.3,5.2-2.2
	c1.1,0,2.2,0.2,3.2,0.7c0.9,0.4,1.6,1,2.2,1.8C68.9,14.9,69.4,15.8,69.6,16.7L69.6,16.7z M66,18.2c-0.1-0.8-0.4-1.6-1-2.2
	c-0.5-0.6-1.3-0.9-2.1-0.9c-0.8,0-1.6,0.3-2.1,0.8c-0.6,0.6-0.9,1.4-1,2.3H66z M86.2,12h-4.9l-4.9,5.3V6.8h-4.1v19.9h4.1v-4.4
	l1.4-1.5l3.8,6h4.7l-5.7-8.9L86.2,12z M100.8,16.7c0.3,1,0.4,2,0.4,3c0,0.2,0,0.3,0,0.5s0,0.4,0,0.6H91c0.1,0.8,0.6,1.6,1.2,2.1
	c0.7,0.5,1.5,0.8,2.3,0.7c0.6,0,1.3-0.1,1.9-0.4c0.6-0.3,1.2-0.7,1.7-1.1l2.4,2.1c-0.7,0.8-1.5,1.5-2.5,2c-1.1,0.5-2.3,0.8-3.5,0.7
	c-1,0-2.1-0.2-3-0.5c-0.9-0.3-1.7-0.9-2.4-1.6c-0.7-0.7-1.2-1.5-1.6-2.4c-0.4-1-0.6-2-0.6-3.1v-0.1c0-1,0.2-2,0.5-2.9
	c0.3-0.9,0.8-1.7,1.5-2.4c1.3-1.5,3.2-2.3,5.2-2.2c1.1,0,2.2,0.2,3.2,0.7c0.9,0.4,1.6,1,2.2,1.8C100.1,14.9,100.5,15.8,100.8,16.7
	L100.8,16.7z M97.2,18.2c-0.1-0.8-0.4-1.6-1-2.2c-0.5-0.6-1.3-0.9-2.1-0.9c-0.8,0-1.6,0.3-2.1,0.8c-0.6,0.6-0.9,1.4-1,2.3H97.2z
	 M103.6,26.6h4.1V6.8h-4.1V26.6z M123.1,12h-12.5v3.4h7.3l-7.5,8.3v2.9h12.7v-3.4h-7.6l7.6-8.3L123.1,12z"/>
<path class="st1" d="M48.5,34.5c-1.2,0-2.2-0.9-2.2-2.1s0.9-2.2,2.1-2.2c1.2,0,2.2,0.9,2.2,2.1c0,0,0,0,0,0c0,1.1-0.8,2.1-2,2.2
	C48.6,34.5,48.5,34.5,48.5,34.5z M48.5,33.9c0.8,0,1.4-0.6,1.4-1.4c0-0.1,0-0.1,0-0.2c0.1-0.8-0.5-1.5-1.3-1.5s-1.5,0.5-1.5,1.3
	c0,0.1,0,0.2,0,0.3c-0.1,0.8,0.4,1.4,1.2,1.5C48.4,33.9,48.4,33.9,48.5,33.9L48.5,33.9z"/>
<path class="st1" d="M55,32.1c0-0.9-0.5-1.3-1.2-1.3s-1.2,0.4-1.2,1.3v2.3h-0.7v-4.2h0.7v0.6c0.3-0.4,0.8-0.7,1.3-0.7
	c0.9-0.1,1.7,0.6,1.7,1.5c0,0.1,0,0.2,0,0.3v2.5H55L55,32.1z"/>
<path class="st1" d="M59.7,30.8h-0.5v-0.6h0.5v-1h0.7v1.1h1.1v0.6h-1.1v2.5c0,0.4,0.2,0.6,0.6,0.6h0.5v0.6h-0.6
	c-0.7,0-1.2-0.3-1.2-1.1L59.7,30.8z"/>
<path class="st1" d="M62.7,28.8h0.7v2.1c0.3-0.5,0.8-0.7,1.4-0.7c0.9,0,1.6,0.7,1.7,1.5c0,0.1,0,0.2,0,0.3v2.5h-0.7v-2.4
	c0-0.9-0.5-1.3-1.2-1.3s-1.2,0.4-1.2,1.3v2.3h-0.7V28.8z"/>
<path class="st1" d="M69.8,34.5c-1.1,0-2-0.8-2.1-1.9c0-0.1,0-0.1,0-0.2c-0.1-1.1,0.7-2,1.8-2.1c0.1,0,0.2,0,0.3,0
	c1.1-0.1,1.9,0.8,2,1.8c0,0.1,0,0.1,0,0.2c0,0.1,0,0.3,0,0.4h-3.3c0,0.7,0.6,1.3,1.3,1.3c0,0,0,0,0,0c0.5,0,1-0.3,1.2-0.8h0.7
	C71.4,34,70.6,34.6,69.8,34.5z M68.4,32h2.6c0-0.7-0.5-1.2-1.2-1.3c0,0-0.1,0-0.1,0C69,30.8,68.4,31.3,68.4,32L68.4,32z"/>
<path class="st1" d="M76.2,34.4h-0.7v-4.2h0.7v0.7c0.3-0.5,0.8-0.8,1.3-0.8v0.7h-0.2c-0.7,0-1.2,0.3-1.2,1.3L76.2,34.4z"/>
<path class="st1" d="M78.6,29.1c0-0.3,0.2-0.5,0.5-0.5c0.3,0,0.5,0.2,0.5,0.5c0,0.3-0.2,0.5-0.5,0.5c-0.1,0-0.2-0.1-0.3-0.1
	C78.6,29.4,78.6,29.2,78.6,29.1z M78.7,30.3h0.7v4.2h-0.7V30.3z"/>
<path class="st1" d="M82.7,30.2c0.6,0,1.2,0.3,1.6,0.8v-0.8h0.7v4.3c0.1,1-0.7,1.9-1.8,2c-0.1,0-0.1,0-0.2,0c-0.9,0.1-1.8-0.5-2-1.4
	h0.7c0.2,0.5,0.7,0.9,1.3,0.8c0.7,0,1.3-0.5,1.3-1.2c0-0.1,0-0.1,0-0.2v-0.9c-0.3,0.5-0.9,0.9-1.6,0.9c-1.2-0.1-2.1-1.2-2-2.3
	C80.8,31.1,81.6,30.3,82.7,30.2L82.7,30.2z M82.8,30.8c-0.8,0-1.4,0.6-1.4,1.4c0,0,0,0.1,0,0.1c0.1,0.8,0.8,1.4,1.5,1.3
	s1.4-0.8,1.3-1.5C84.2,31.4,83.5,30.8,82.8,30.8z"/>
<path class="st1" d="M86.5,28.8h0.7v2.1c0.3-0.5,0.8-0.7,1.4-0.7c0.9,0,1.6,0.7,1.7,1.5c0,0.1,0,0.2,0,0.3v2.5h-0.7v-2.4
	c0-0.9-0.5-1.3-1.2-1.3s-1.2,0.4-1.2,1.3v2.3h-0.7L86.5,28.8z"/>
<path class="st1" d="M91.9,30.8h-0.5v-0.6h0.5v-1h0.7v1.1h1.1v0.6h-1.1v2.5c0,0.4,0.2,0.6,0.6,0.6h0.5v0.6H93
	c-0.7,0-1.2-0.3-1.2-1.1L91.9,30.8z"/>
<path class="st2" d="M97.4,31h-0.5v-0.7h0.5v-1h0.9v1h1V31h-1v2.3c0,0.3,0.1,0.4,0.5,0.4h0.5v0.7h-0.7c-0.7,0-1.2-0.3-1.2-1.2V31z"
	/>
<path class="st2" d="M101.3,34.4h-0.9v-4.2h0.9v0.6c0.3-0.4,0.7-0.7,1.3-0.7v0.9h-0.2c-0.6,0-1,0.3-1,1.2V34.4z"/>
<path class="st2" d="M105.5,30.2c0.6,0,1.1,0.2,1.5,0.7v-0.6h0.9v4.2h-0.9v-0.6c-0.4,0.5-0.9,0.7-1.5,0.7c-1.1,0-2-1-2-2.1
	c0,0,0-0.1,0-0.1c-0.1-1.1,0.7-2.1,1.8-2.1C105.4,30.2,105.4,30.2,105.5,30.2z M105.6,30.9c-0.7,0-1.3,0.6-1.3,1.3c0,0,0,0.1,0,0.1
	c-0.1,0.7,0.5,1.4,1.2,1.4c0,0,0,0,0.1,0c0.7,0,1.3-0.6,1.3-1.3c0,0,0-0.1,0-0.1c0.1-0.7-0.5-1.3-1.2-1.4
	C105.7,30.9,105.7,30.9,105.6,30.9L105.6,30.9z"/>
<path class="st2" d="M111.1,30.2c0.9-0.1,1.7,0.5,1.9,1.4h-0.9c-0.1-0.4-0.6-0.7-1-0.7c-0.7,0-1.2,0.5-1.2,1.4s0.5,1.4,1.2,1.4
	c0.4,0,0.9-0.2,1-0.7h0.9c-0.2,0.9-1,1.4-1.9,1.4c-1.2-0.1-2.1-1.1-2.1-2.3C109.1,31.1,110,30.2,111.1,30.2z"/>
<path class="st2" d="M114.3,28.8h0.9v3.3l1.5-1.8h1.2l-1.9,2.1l1.9,2.1h-1.2l-1.6-1.8v1.8h-0.9L114.3,28.8z"/>
<path class="st2" d="M27,11.3c-0.9,0.9-1.9,1.9-2.7,3c-0.8,1-1.7,2.1-2.4,3.2c-1.1,1.6-2.1,3.3-3,5.1c-0.8,1.6-1.5,3.2-2,4.9
	l-1.6-3.8c0.2-0.4,0.5-0.8,0.7-1.2c0.6-1,1.3-2,2-2.9c0.6-0.9,1.3-1.7,2-2.5c0.9-1.1,1.9-2.2,3-3.2c0.9-0.8,1.8-1.6,2.7-2.4
	c0.8-0.7,1.6-1.3,2.4-1.8C28,9.5,27.9,9.3,27.8,9c-3.2,1.9-9.7,6.5-13.2,13.1l-1.1-2.8c3.9-4.5,8.8-8.1,14.2-10.6
	c-0.1-0.2-0.2-0.4-0.3-0.6l0,0C27.2,7.8,27,7.4,26.8,7l0,0h0c-0.2-0.3-0.3-0.5-0.5-0.8l0,0c0-0.1-0.1-0.1-0.1-0.2l0,0
	c-4.6-6.5-13.6-8-20.1-3.4C2.2,5.4,0,9.8,0,14.5c0,6.6,10.1,19.7,13.4,23.8c0.5,0.6,1.3,0.7,1.9,0.2c0.1-0.1,0.1-0.1,0.2-0.2
	c3.3-4.1,13.4-17.2,13.4-23.8c0-1.4-0.2-2.9-0.6-4.2C27.8,10.6,27.4,11,27,11.3z M15.3,32c-0.2,0.5-0.7,0.7-1.2,0.5
	c-0.2-0.1-0.4-0.3-0.5-0.5C11.1,25.4,8,17.9,6,12.9C5.1,10.6,4.5,10,3,9.7V8.5h8.5v1.1c-2.7,0.3-2.7,0.6-2.2,2.2
	c0.5,1.3,1.5,3.8,2.6,6.6l4.4,10.7C16,30.1,15.6,31.1,15.3,32L15.3,32z"/>
</svg>
